<?xml version="1.0" encoding="utf-8"?>
<!-- Generator: Adobe Illustrator 16.0.0, SVG Export Plug-In . SVG Version: 6.00 Build 0)  -->
<!DOCTYPE svg PUBLIC "-//W3C//DTD SVG 1.1//EN" "http://www.w3.org/Graphics/SVG/1.1/DTD/svg11.dtd">
<svg version="1.1" id="Layer_1" xmlns="http://www.w3.org/2000/svg" xmlns:xlink="http://www.w3.org/1999/xlink" x="0px" y="0px"
	 width="474.101px" height="474.193px" viewBox="1351.915 1198.532 474.101 474.193"
	 enable-background="new 1351.915 1198.532 474.101 474.193" xml:space="preserve">
<linearGradient id="SVGID_1_" gradientUnits="userSpaceOnUse" x1="-10.1226" y1="2874.9834" x2="-484.9652" y2="3149.1338" gradientTransform="matrix(1 0 0 -1 1836 4447)">
	<stop  offset="0.5" style="stop-color:#C9C9C9;stop-opacity:0.7"/>
	<stop  offset="0.6812" style="stop-color:#E3E3E3;stop-opacity:0.6638"/>
	<stop  offset="0.8724" style="stop-color:#F8F8F8;stop-opacity:0.6255"/>
	<stop  offset="1" style="stop-color:#FFFFFF;stop-opacity:0.6"/>
</linearGradient>
<path fill="url(#SVGID_1_)" d="M1792.617,1626.659c0,6.108-4.953,11.061-11.061,11.061h-386.199c-6.11,0-11.061-4.952-11.061-11.061
	v-383.435c0-6.109,4.951-11.061,11.061-11.061h386.199c6.109,0,11.061,4.951,11.061,11.061V1626.659z"/>
<path fill="#EAEAEA" d="M1392.667,1230.637c-6.253,0-6.337,6.137-6.337,6.137v124.653h39.79v-130.79
	C1406.033,1230.637,1393.665,1230.637,1392.667,1230.637z"/>
<rect x="1386.33" y="1368.893" fill="#EAEAEA" width="39.79" height="130.792"/>
<path fill="#EAEAEA" d="M1386.33,1507.15c0,0,0,121.842,0,125.821c0,3.978,4.773,4.971,4.773,4.971h35.015V1507.15H1386.33
	L1386.33,1507.15z"/>
<path fill="#EAEAEA" d="M1793.631,1235.741c0,0-0.289-5.104-5.319-5.104c-6.455,0-18.497,0-34.472,0v130.79h39.789v-125.686
	H1793.631z"/>
<path fill="#EAEAEA" d="M1432.104,1230.637v130.79h315.003v-130.79C1670.624,1230.637,1499.238,1230.637,1432.104,1230.637z"/>
<rect x="1432.104" y="1368.893" fill="#EAEAEA" width="315.003" height="130.792"/>
<rect x="1753.841" y="1368.893" fill="#EAEAEA" width="39.79" height="130.792"/>
<path fill="#EAEAEA" d="M1793.627,1507.15h-39.782v130.792h35.553c0,0,4.213-0.844,4.229-4.676
	C1793.644,1629.435,1793.627,1507.15,1793.627,1507.15z"/>
<rect x="1432.104" y="1507.15" fill="#EAEAEA" width="315.003" height="130.792"/>
<g>
	<path fill="#E85D5D" d="M1478.52,1306.85h-32.609v-41.259h151.512c59.702,0,102.848,31.664,102.848,86.354
		c0,36.942-20.568,61.889-44.149,72.922v0.958c37.628,10.556,58.196,44.141,58.196,82.038c0,63.808-51.172,96.43-113.884,96.43
		h-89.804c-22.577,0-32.109-9.114-32.109-30.704V1306.85L1478.52,1306.85z M1597.926,1408.076c31.104,0,51.171-21.588,51.171-51.334
		c0-29.743-19.064-49.894-52.176-49.894h-68.231v101.228H1597.926z M1539.728,1563.037h63.215c37.627,0,59.703-23.027,59.703-57.569
		c0-34.543-23.581-58.051-59.703-58.051h-74.25v105.066C1528.691,1559.199,1532.705,1563.037,1539.728,1563.037z"/>
</g>
</svg>
