<?xml version="1.0" encoding="utf-8"?>
<!-- Generator: Adobe Illustrator 16.0.0, SVG Export Plug-In . SVG Version: 6.00 Build 0)  -->
<!DOCTYPE svg PUBLIC "-//W3C//DTD SVG 1.1//EN" "http://www.w3.org/Graphics/SVG/1.1/DTD/svg11.dtd">
<svg version="1.1" id="Layer_1" xmlns="http://www.w3.org/2000/svg" xmlns:xlink="http://www.w3.org/1999/xlink" x="0px" y="0px"
	 width="4464px" height="3168px" viewBox="0 0 4464 3168" enable-background="new 0 0 4464 3168" xml:space="preserve">
<g>
	<path fill="#EA5E5B" d="M1000.254,640.192h-14.3v-18.92h66.44c26.18,0,45.1,14.52,45.1,39.6c0,16.94-9.02,28.38-19.36,33.44v0.44
		c16.5,4.84,25.521,20.24,25.521,37.62c0,29.26-22.44,44.22-49.94,44.22h-39.38c-9.9,0-14.08-4.18-14.08-14.08V640.192z
		 M1052.615,686.612c13.64,0,22.44-9.9,22.44-23.54s-8.36-22.88-22.88-22.88h-29.92v46.42H1052.615z M1027.095,757.673h27.72
		c16.5,0,26.18-10.56,26.18-26.4c0-15.84-10.34-26.62-26.18-26.62h-32.56v48.18C1022.255,755.913,1024.015,757.673,1027.095,757.673
		z"/>
	<path fill="#EA5E5B" d="M1132.252,688.372c0-3.3-1.76-4.84-4.84-4.84h-9.02v-18.26h20.24c9.68,0,14.3,3.96,14.3,12.98v7.04
		c0,4.4-0.44,7.7-0.44,7.7h0.44c5.28-16.28,18.04-29.04,35.2-29.04c2.86,0,5.72,0.44,5.72,0.44v21.12c0,0-2.86-0.66-6.38-0.66
		c-13.64,0-26.18,9.68-31.24,26.18c-1.98,6.38-2.64,13.2-2.64,20.021v45.54h-21.34V688.372z"/>
	<path fill="#EA5E5B" d="M1258.093,662.632c31.24,0,47.96,23.32,47.96,52.14c0,2.86-0.66,8.8-0.66,8.8h-81.181
		c1.32,23.76,18.48,37.181,38.28,37.181c19.14,0,32.561-12.98,32.561-12.98l9.24,15.18c0,0-16.5,16.28-42.9,16.28
		c-35.2,0-59.181-25.3-59.181-58.3C1202.213,685.512,1226.413,662.632,1258.093,662.632z M1284.054,707.952
		c-0.66-18.48-12.32-28.38-26.18-28.38c-16.28,0-29.48,9.9-32.78,28.38H1284.054z"/>
	<path fill="#EA5E5B" d="M1327.61,687.932c-1.32-3.3-3.3-4.4-6.82-4.4h-2.2v-18.26h11c9.9,0,13.64,2.42,16.94,11.22l23.98,64.021
		c2.2,6.16,3.96,14.52,3.96,14.52h0.44c0,0,1.76-8.36,3.96-14.52l23.76-64.021c3.3-8.8,7.26-11.22,16.94-11.22h10.34v18.26h-2.2
		c-3.74,0-5.94,1.1-7.26,4.4l-33.88,88.661h-24.64L1327.61,687.932z"/>
	<path fill="#EA5E5B" d="M1494.371,662.632c31.24,0,47.96,23.32,47.96,52.14c0,2.86-0.66,8.8-0.66,8.8h-81.18
		c1.32,23.76,18.48,37.181,38.28,37.181c19.14,0,32.561-12.98,32.561-12.98l9.24,15.18c0,0-16.5,16.28-42.9,16.28
		c-35.2,0-59.181-25.3-59.181-58.3C1438.491,685.512,1462.691,662.632,1494.371,662.632z M1520.331,707.952
		c-0.66-18.48-12.32-28.38-26.18-28.38c-16.28,0-29.48,9.9-32.78,28.38H1520.331z"/>
	<path fill="#EA5E5B" d="M1567.408,753.933h21.78v22.66h-21.78V753.933z"/>
	<path fill="#C1C1C0" d="M1682.585,743.793c0,0,14.4,17,35.399,17c13.2,0,24.2-8,24.2-21c0-29.6-68.199-25-68.199-68.999
		c0-21.2,18.6-37.799,45.199-37.799c15,0,40.199,6.8,40.199,26v11.6h-18.399v-6.6c0-7.4-10.6-12.8-21.8-12.8
		c-15.2,0-24.8,8.4-24.8,19c0,28.6,67.999,22.2,67.999,68.599c0,21.6-16.8,40.199-44.799,40.199c-30,0-46.799-21-46.799-21
		L1682.585,743.793z"/>
	<path fill="#C1C1C0" d="M1829.58,672.994c28.399,0,43.6,21.2,43.6,47.399c0,2.6-0.6,8-0.6,8h-73.799
		c1.2,21.6,16.8,33.799,34.799,33.799c17.4,0,29.6-11.8,29.6-11.8l8.4,13.8c0,0-15,14.8-39,14.8c-32,0-53.799-23-53.799-52.999
		C1778.781,693.794,1800.781,672.994,1829.58,672.994z M1853.18,714.194c-0.6-16.8-11.2-25.8-23.799-25.8c-14.8,0-26.8,9-29.8,25.8
		H1853.18z"/>
	<path fill="#C1C1C0" d="M1939.978,672.994c28.399,0,43.6,21.2,43.6,47.399c0,2.6-0.6,8-0.6,8h-73.799
		c1.2,21.6,16.8,33.799,34.799,33.799c17.4,0,29.6-11.8,29.6-11.8l8.4,13.8c0,0-15,14.8-39,14.8c-32,0-53.799-23-53.799-52.999
		C1889.178,693.794,1911.178,672.994,1939.978,672.994z M1963.577,714.194c-0.6-16.8-11.2-25.8-23.799-25.8
		c-14.8,0-26.8,9-29.8,25.8H1963.577z"/>
	<path fill="#C1C1C0" d="M2069.975,801.792c7.8,0,14-5.6,17.8-14.6l4.6-11l-34.6-80.199c-1.4-3.2-3.2-4-6.4-4h-2.4v-16.6h11.4
		c8.2,0,11.2,2.2,14.4,10.2l23,56.999c2,5.2,3.6,12.2,3.6,12.2h0.4c0,0,1.4-7,3.4-12.2l21-56.999c3-8,6.6-10.2,14.799-10.2h11.6
		v16.6h-2.6c-3.2,0-5,0.8-6.4,4l-40,98.798c-6.2,15.6-18.399,23.8-32.599,23.8c-15,0-23.8-10-23.8-10l8-14
		C2055.175,794.792,2061.375,801.792,2069.975,801.792z"/>
	<path fill="#C1C1C0" d="M2214.973,672.994c30.2,0,54.599,22.2,54.599,52.799c0,30.8-24.399,53.199-54.599,53.199
		s-54.399-22.399-54.399-53.199C2160.574,695.194,2184.773,672.994,2214.973,672.994z M2214.973,762.193
		c19.2,0,34.799-15.2,34.799-36.399c0-21-15.6-36-34.799-36c-19,0-34.6,15-34.6,36
		C2180.374,746.993,2195.973,762.193,2214.973,762.193z"/>
	<path fill="#C1C1C0" d="M2293.371,696.394c0-3-1.6-4.4-4.399-4.4h-8.2v-16.6h19c9.199,0,12.999,3.8,12.999,12.399v48
		c0,14,2.801,25.2,18.8,25.2c20.8,0,33-18.2,33-38.2v-47.399h19.399v80.199c0,3,1.601,4.4,4.4,4.4h8.199v16.6h-18.6
		c-8.6,0-12.8-4-12.8-11.2v-3.8c0-3.2,0.2-5.8,0.2-5.8h-0.4c-4.199,10-17.199,23.2-37.199,23.2c-22.8,0-34.399-12-34.399-38.799
		V696.394z"/>
	<path fill="#C1C1C0" d="M2417.97,696.394c0-3-1.601-4.4-4.4-4.4h-8.199v-16.6h18.399c8.8,0,13,3.6,13,11.8v6.4c0,4-0.4,7-0.4,7h0.4
		c4.8-14.8,16.399-26.399,31.999-26.399c2.601,0,5.2,0.4,5.2,0.4v19.2c0,0-2.6-0.6-5.8-0.6c-12.4,0-23.8,8.8-28.399,23.8
		c-1.801,5.8-2.4,12-2.4,18.2v41.399h-19.399V696.394z"/>
	<path fill="#C1C1C0" d="M2585.367,672.994c23.399,0,31.199,15.6,31.199,15.6h0.4c0,0-0.4-3-0.4-6.8v-25.4c0-3-1.6-4.4-4.399-4.4
		h-8.2v-16.6h19.2c8.999,0,12.8,3.8,12.8,12.8v107.398c0,3,1.6,4.4,4.399,4.4h8.2v16.6h-18.6c-8.8,0-12.4-4-12.4-10.8
		c0-3,0.2-5.2,0.2-5.2h-0.4c0,0-8.399,18.4-33.199,18.4c-27.399,0-44.6-21.6-44.6-52.999
		C2539.567,693.794,2558.567,672.994,2585.367,672.994z M2617.167,725.793c0-18-9.4-36-28.8-36c-15.8,0-29,13.2-29,36.2
		c0,22,11.8,36.199,28.6,36.199C2602.967,762.193,2617.167,751.593,2617.167,725.793z"/>
	<path fill="#C1C1C0" d="M2721.566,713.594h4.399v-1c0-17.8-6.6-24.2-22.399-24.2c-4.8,0-16.6,1.2-16.6,7.8v5.8h-18.2v-10
		c0-16.6,25.2-19,35-19c32.799,0,41.599,17.2,41.599,39.6v43c0,3,1.601,4.4,4.4,4.4h8.2v16.6h-18.2c-9,0-12.6-4.4-12.6-11.6
		c0-3.4,0.399-6,0.399-6h-0.399c0,0-8,20-32.199,20c-17.4,0-34.4-10.6-34.4-30.799
		C2660.566,715.594,2704.566,713.594,2721.566,713.594z M2699.166,763.393c16.4,0,27-17.2,27-32.2v-3.4h-5
		c-14.6,0-40.999,0.8-40.999,19.4C2680.167,755.393,2686.366,763.393,2699.166,763.393z"/>
	<path fill="#C1C1C0" d="M2779.765,690.994h-13.2v-15.6h13.601v-27.8h18.999v27.8h24.2v15.6h-24.2v46.399
		c0,20.2,14,22.799,21.399,22.799c2.801,0,4.601-0.4,4.601-0.4v17.2c0,0-2.601,0.4-6.8,0.4c-12.8,0-38.6-4-38.6-37.799V690.994z"/>
	<path fill="#C1C1C0" d="M2899.765,713.594h4.399v-1c0-17.8-6.6-24.2-22.399-24.2c-4.8,0-16.6,1.2-16.6,7.8v5.8h-18.2v-10
		c0-16.6,25.2-19,35-19c32.799,0,41.599,17.2,41.599,39.6v43c0,3,1.601,4.4,4.4,4.4h8.2v16.6h-18.2c-9,0-12.6-4.4-12.6-11.6
		c0-3.4,0.399-6,0.399-6h-0.399c0,0-8,20-32.199,20c-17.4,0-34.4-10.6-34.4-30.799
		C2838.765,715.594,2882.765,713.594,2899.765,713.594z M2877.364,763.393c16.4,0,27-17.2,27-32.2v-3.4h-5
		c-14.6,0-40.999,0.8-40.999,19.4C2858.365,755.393,2864.564,763.393,2877.364,763.393z"/>
	<path fill="#C1C1C0" d="M2954.163,755.993h19.8v20.6h-19.8V755.993z"/>
</g>
</svg>
