<?xml version="1.0" encoding="utf-8"?>
<!-- Generator: Adobe Illustrator 18.1.1, SVG Export Plug-In . SVG Version: 6.00 Build 0)  -->
<svg version="1.1" id="Layer_1" xmlns="http://www.w3.org/2000/svg" xmlns:xlink="http://www.w3.org/1999/xlink" x="0px" y="0px"
	 viewBox="2833.9 -617 2112.8 276.9" enable-background="new 2833.9 -617 2112.8 276.9" xml:space="preserve">
<g>
	<path fill="#EA5E5B" d="M2926.3-547.8H2912v-18.9h66.4c26.2,0,45.1,14.5,45.1,39.6c0,16.9-9,28.4-19.4,33.4v0.4
		c16.5,4.8,25.5,20.2,25.5,37.6c0,29.3-22.4,44.2-49.9,44.2h-39.4c-9.9,0-14.1-4.2-14.1-14.1L2926.3-547.8L2926.3-547.8z
		 M2978.6-501.4c13.6,0,22.4-9.9,22.4-23.5s-8.4-22.9-22.9-22.9h-29.9v46.4H2978.6z M2953.1-430.3h27.7c16.5,0,26.2-10.6,26.2-26.4
		s-10.3-26.6-26.2-26.6h-32.6v48.2C2948.3-432.1,2950-430.3,2953.1-430.3z"/>
	<path fill="#EA5E5B" d="M3058.3-499.6c0-3.3-1.8-4.8-4.8-4.8h-9v-18.3h20.2c9.7,0,14.3,4,14.3,13v7c0,4.4-0.4,7.7-0.4,7.7h0.4
		c5.3-16.3,18-29,35.2-29c2.9,0,5.7,0.4,5.7,0.4v21.1c0,0-2.9-0.7-6.4-0.7c-13.6,0-26.2,9.7-31.2,26.2c-2,6.4-2.6,13.2-2.6,20v45.5
		h-21.3V-499.6z"/>
	<path fill="#EA5E5B" d="M3184.1-525.4c31.2,0,48,23.3,48,52.1c0,2.9-0.7,8.8-0.7,8.8h-81.2c1.3,23.8,18.5,37.2,38.3,37.2
		c19.1,0,32.6-13,32.6-13l9.2,15.2c0,0-16.5,16.3-42.9,16.3c-35.2,0-59.2-25.3-59.2-58.3C3128.2-502.5,3152.4-525.4,3184.1-525.4z
		 M3210.1-480c-0.7-18.5-12.3-28.4-26.2-28.4c-16.3,0-29.5,9.9-32.8,28.4H3210.1z"/>
	<path fill="#EA5E5B" d="M3253.6-500.1c-1.3-3.3-3.3-4.4-6.8-4.4h-2.2v-18.3h11c9.9,0,13.6,2.4,16.9,11.2l24,64
		c2.2,6.2,4,14.5,4,14.5h0.4c0,0,1.8-8.4,4-14.5l23.8-64c3.3-8.8,7.3-11.2,16.9-11.2h10.3v18.3h-2.2c-3.7,0-5.9,1.1-7.3,4.4
		l-33.9,88.7h-24.6L3253.6-500.1z"/>
	<path fill="#EA5E5B" d="M3420.4-525.4c31.2,0,48,23.3,48,52.1c0,2.9-0.7,8.8-0.7,8.8h-81.2c1.3,23.8,18.5,37.2,38.3,37.2
		c19.1,0,32.6-13,32.6-13l9.2,15.2c0,0-16.5,16.3-42.9,16.3c-35.2,0-59.2-25.3-59.2-58.3C3364.5-502.5,3388.7-525.4,3420.4-525.4z
		 M3446.3-480c-0.7-18.5-12.3-28.4-26.2-28.4c-16.3,0-29.5,9.9-32.8,28.4H3446.3z"/>
	<path fill="#EA5E5B" d="M3493.4-434.1h21.8v22.7h-21.8V-434.1z"/>
	<path fill="#C1C1C0" d="M3608.6-444.2c0,0,14.4,17,35.4,17c13.2,0,24.2-8,24.2-21c0-29.6-68.2-25-68.2-69
		c0-21.2,18.6-37.8,45.2-37.8c15,0,40.2,6.8,40.2,26v11.6H3667v-6.6c0-7.4-10.6-12.8-21.8-12.8c-15.2,0-24.8,8.4-24.8,19
		c0,28.6,68,22.2,68,68.6c0,21.6-16.8,40.2-44.8,40.2c-30,0-46.8-21-46.8-21L3608.6-444.2z"/>
	<path fill="#C1C1C0" d="M3755.6-515c28.4,0,43.6,21.2,43.6,47.4c0,2.6-0.6,8-0.6,8h-73.8c1.2,21.6,16.8,33.8,34.8,33.8
		c17.4,0,29.6-11.8,29.6-11.8l8.4,13.8c0,0-15,14.8-39,14.8c-32,0-53.8-23-53.8-53C3704.8-494.2,3726.8-515,3755.6-515z
		 M3779.2-473.8c-0.6-16.8-11.2-25.8-23.8-25.8c-14.8,0-26.8,9-29.8,25.8H3779.2z"/>
	<path fill="#C1C1C0" d="M3866-515c28.4,0,43.6,21.2,43.6,47.4c0,2.6-0.6,8-0.6,8h-73.8c1.2,21.6,16.8,33.8,34.8,33.8
		c17.4,0,29.6-11.8,29.6-11.8l8.4,13.8c0,0-15,14.8-39,14.8c-32,0-53.8-23-53.8-53C3815.2-494.2,3837.2-515,3866-515z M3889.6-473.8
		c-0.6-16.8-11.2-25.8-23.8-25.8c-14.8,0-26.8,9-29.8,25.8H3889.6z"/>
	<path fill="#C1C1C0" d="M3996-386.2c7.8,0,14-5.6,17.8-14.6l4.6-11l-34.6-80.2c-1.4-3.2-3.2-4-6.4-4h-2.4v-16.6h11.4
		c8.2,0,11.2,2.2,14.4,10.2l23,57c2,5.2,3.6,12.2,3.6,12.2h0.4c0,0,1.4-7,3.4-12.2l21-57c3-8,6.6-10.2,14.8-10.2h11.6v16.6h-2.6
		c-3.2,0-5,0.8-6.4,4l-40,98.8c-6.2,15.6-18.4,23.8-32.6,23.8c-15,0-23.8-10-23.8-10l8-14C3981.2-393.2,3987.4-386.2,3996-386.2z"/>
	<path fill="#C1C1C0" d="M4141-515c30.2,0,54.6,22.2,54.6,52.8c0,30.8-24.4,53.2-54.6,53.2s-54.4-22.4-54.4-53.2
		C4086.6-492.8,4110.8-515,4141-515z M4141-425.8c19.2,0,34.8-15.2,34.8-36.4c0-21-15.6-36-34.8-36c-19,0-34.6,15-34.6,36
		C4106.4-441,4122-425.8,4141-425.8z"/>
	<path fill="#C1C1C0" d="M4219.4-491.6c0-3-1.6-4.4-4.4-4.4h-8.2v-16.6h19c9.2,0,13,3.8,13,12.4v48c0,14,2.8,25.2,18.8,25.2
		c20.8,0,33-18.2,33-38.2v-47.4h19.4v80.2c0,3,1.6,4.4,4.4,4.4h8.2v16.6H4304c-8.6,0-12.8-4-12.8-11.2v-3.8c0-3.2,0.2-5.8,0.2-5.8
		h-0.4c-4.2,10-17.2,23.2-37.2,23.2c-22.8,0-34.4-12-34.4-38.8V-491.6z"/>
	<path fill="#C1C1C0" d="M4344-491.6c0-3-1.6-4.4-4.4-4.4h-8.2v-16.6h18.4c8.8,0,13,3.6,13,11.8v6.4c0,4-0.4,7-0.4,7h0.4
		c4.8-14.8,16.4-26.4,32-26.4c2.6,0,5.2,0.4,5.2,0.4v19.2c0,0-2.6-0.6-5.8-0.6c-12.4,0-23.8,8.8-28.4,23.8c-1.8,5.8-2.4,12-2.4,18.2
		v41.4H4344L4344-491.6L4344-491.6z"/>
	<path fill="#C1C1C0" d="M4511.4-515c23.4,0,31.2,15.6,31.2,15.6h0.4c0,0-0.4-3-0.4-6.8v-25.4c0-3-1.6-4.4-4.4-4.4h-8.2v-16.6h19.2
		c9,0,12.8,3.8,12.8,12.8v107.4c0,3,1.6,4.4,4.4,4.4h8.2v16.6H4556c-8.8,0-12.4-4-12.4-10.8c0-3,0.2-5.2,0.2-5.2h-0.4
		c0,0-8.4,18.4-33.2,18.4c-27.4,0-44.6-21.6-44.6-53C4465.6-494.2,4484.6-515,4511.4-515z M4543.2-462.2c0-18-9.4-36-28.8-36
		c-15.8,0-29,13.2-29,36.2c0,22,11.8,36.2,28.6,36.2C4529-425.8,4543.2-436.4,4543.2-462.2z"/>
	<path fill="#C1C1C0" d="M4647.6-474.4h4.4v-1c0-17.8-6.6-24.2-22.4-24.2c-4.8,0-16.6,1.2-16.6,7.8v5.8h-18.2v-10
		c0-16.6,25.2-19,35-19c32.8,0,41.6,17.2,41.6,39.6v43c0,3,1.6,4.4,4.4,4.4h8.2v16.6h-18.2c-9,0-12.6-4.4-12.6-11.6
		c0-3.4,0.4-6,0.4-6h-0.4c0,0-8,20-32.2,20c-17.4,0-34.4-10.6-34.4-30.8C4586.6-472.4,4630.6-474.4,4647.6-474.4z M4625.2-424.6
		c16.4,0,27-17.2,27-32.2v-3.4h-5c-14.6,0-41,0.8-41,19.4C4606.2-432.6,4612.4-424.6,4625.2-424.6z"/>
	<path fill="#C1C1C0" d="M4705.8-497h-13.2v-15.6h13.6v-27.8h19v27.8h24.2v15.6h-24.2v46.4c0,20.2,14,22.8,21.4,22.8
		c2.8,0,4.6-0.4,4.6-0.4v17.2c0,0-2.6,0.4-6.8,0.4c-12.8,0-38.6-4-38.6-37.8V-497z"/>
	<path fill="#C1C1C0" d="M4825.8-474.4h4.4v-1c0-17.8-6.6-24.2-22.4-24.2c-4.8,0-16.6,1.2-16.6,7.8v5.8H4773v-10
		c0-16.6,25.2-19,35-19c32.8,0,41.6,17.2,41.6,39.6v43c0,3,1.6,4.4,4.4,4.4h8.2v16.6H4844c-9,0-12.6-4.4-12.6-11.6
		c0-3.4,0.4-6,0.4-6h-0.4c0,0-8,20-32.2,20c-17.4,0-34.4-10.6-34.4-30.8C4764.8-472.4,4808.8-474.4,4825.8-474.4z M4803.4-424.6
		c16.4,0,27-17.2,27-32.2v-3.4h-5c-14.6,0-41,0.8-41,19.4C4784.4-432.6,4790.6-424.6,4803.4-424.6z"/>
	<path fill="#C1C1C0" d="M4880.2-432h19.8v20.6h-19.8V-432z"/>
</g>
</svg>
