<?xml version="1.0" encoding="utf-8"?>
<!-- Generator: Adobe Illustrator 16.0.0, SVG Export Plug-In . SVG Version: 6.00 Build 0)  -->
<!DOCTYPE svg PUBLIC "-//W3C//DTD SVG 1.1//EN" "http://www.w3.org/Graphics/SVG/1.1/DTD/svg11.dtd">
<svg version="1.1" id="Layer_1" xmlns="http://www.w3.org/2000/svg" xmlns:xlink="http://www.w3.org/1999/xlink" x="0px" y="0px"
	 width="1988.009px" height="197.319px" viewBox="985.954 621.271 1988.009 197.319"
	 enable-background="new 985.954 621.271 1988.009 197.319" xml:space="preserve">
<g>
	<path fill="#EA5E5B" d="M1000.254,640.192h-14.3v-18.921h66.44c26.18,0,45.1,14.521,45.1,39.601c0,16.94-9.02,28.38-19.36,33.44
		v0.439c16.5,4.84,25.521,20.24,25.521,37.62c0,29.26-22.44,44.22-49.94,44.22h-39.38c-9.899,0-14.08-4.18-14.08-14.08
		L1000.254,640.192L1000.254,640.192z M1052.615,686.612c13.64,0,22.439-9.9,22.439-23.54c0-13.641-8.359-22.88-22.88-22.88h-29.92
		v46.42H1052.615z M1027.095,757.673h27.72c16.5,0,26.181-10.56,26.181-26.399c0-15.841-10.34-26.62-26.181-26.62h-32.56v48.18
		C1022.255,755.913,1024.016,757.673,1027.095,757.673z"/>
	<path fill="#EA5E5B" d="M1132.252,688.372c0-3.3-1.76-4.84-4.84-4.84h-9.02v-18.261h20.239c9.681,0,14.3,3.961,14.3,12.98v7.04
		c0,4.399-0.439,7.7-0.439,7.7h0.439c5.28-16.28,18.041-29.04,35.2-29.04c2.86,0,5.72,0.439,5.72,0.439v21.12
		c0,0-2.859-0.66-6.38-0.66c-13.64,0-26.18,9.681-31.239,26.181c-1.98,6.38-2.641,13.2-2.641,20.021v45.54h-21.34V688.372z"/>
	<path fill="#EA5E5B" d="M1258.093,662.632c31.24,0,47.96,23.32,47.96,52.14c0,2.86-0.66,8.801-0.66,8.801h-81.181
		c1.319,23.76,18.479,37.181,38.28,37.181c19.14,0,32.561-12.979,32.561-12.979l9.24,15.18c0,0-16.5,16.28-42.9,16.28
		c-35.199,0-59.181-25.3-59.181-58.3C1202.213,685.512,1226.413,662.632,1258.093,662.632z M1284.054,707.952
		c-0.659-18.48-12.319-28.38-26.18-28.38c-16.28,0-29.479,9.899-32.78,28.38H1284.054z"/>
	<path fill="#EA5E5B" d="M1327.609,687.932c-1.319-3.3-3.299-4.399-6.819-4.399h-2.2v-18.261h11c9.9,0,13.641,2.42,16.94,11.221
		l23.979,64.021c2.2,6.16,3.96,14.521,3.96,14.521h0.44c0,0,1.76-8.36,3.96-14.521l23.76-64.021c3.3-8.801,7.26-11.221,16.94-11.221
		h10.34v18.261h-2.2c-3.74,0-5.94,1.1-7.261,4.399l-33.879,88.661h-24.641L1327.609,687.932z"/>
	<path fill="#EA5E5B" d="M1494.371,662.632c31.24,0,47.96,23.32,47.96,52.14c0,2.86-0.66,8.801-0.66,8.801h-81.181
		c1.32,23.76,18.48,37.181,38.281,37.181c19.14,0,32.561-12.979,32.561-12.979l9.24,15.18c0,0-16.5,16.28-42.9,16.28
		c-35.2,0-59.182-25.3-59.182-58.3C1438.491,685.512,1462.691,662.632,1494.371,662.632z M1520.331,707.952
		c-0.66-18.48-12.319-28.38-26.181-28.38c-16.279,0-29.479,9.899-32.779,28.38H1520.331z"/>
	<path fill="#EA5E5B" d="M1567.408,753.933h21.779v22.66h-21.779V753.933z"/>
	<path fill="#C1C1C0" d="M1682.585,743.793c0,0,14.399,17,35.399,17c13.199,0,24.199-8,24.199-21c0-29.6-68.199-25-68.199-68.999
		c0-21.2,18.601-37.799,45.199-37.799c15,0,40.199,6.8,40.199,26v11.6h-18.398v-6.6c0-7.4-10.601-12.8-21.801-12.8
		c-15.199,0-24.8,8.399-24.8,19c0,28.6,67.999,22.199,67.999,68.599c0,21.601-16.8,40.199-44.799,40.199c-30,0-46.799-21-46.799-21
		L1682.585,743.793z"/>
	<path fill="#C1C1C0" d="M1829.58,672.994c28.398,0,43.6,21.2,43.6,47.398c0,2.601-0.6,8-0.6,8h-73.799
		c1.199,21.601,16.8,33.8,34.799,33.8c17.4,0,29.6-11.8,29.6-11.8l8.4,13.8c0,0-15,14.8-39,14.8c-32,0-53.799-23-53.799-52.999
		C1778.781,693.794,1800.781,672.994,1829.58,672.994z M1853.18,714.194c-0.6-16.8-11.199-25.8-23.799-25.8
		c-14.8,0-26.8,9-29.8,25.8H1853.18z"/>
	<path fill="#C1C1C0" d="M1939.979,672.994c28.398,0,43.6,21.2,43.6,47.398c0,2.601-0.6,8-0.6,8h-73.799
		c1.199,21.601,16.799,33.8,34.799,33.8c17.399,0,29.6-11.8,29.6-11.8l8.4,13.8c0,0-15,14.8-39,14.8c-32,0-53.799-23-53.799-52.999
		C1889.178,693.794,1911.178,672.994,1939.979,672.994z M1963.577,714.194c-0.601-16.8-11.2-25.8-23.799-25.8
		c-14.8,0-26.8,9-29.8,25.8H1963.577z"/>
	<path fill="#C1C1C0" d="M2069.975,801.792c7.801,0,14-5.6,17.801-14.6l4.6-11l-34.6-80.199c-1.4-3.2-3.2-4-6.4-4h-2.399v-16.601
		h11.399c8.2,0,11.2,2.2,14.4,10.2l23,56.999c2,5.2,3.6,12.2,3.6,12.2h0.4c0,0,1.399-7,3.399-12.2l21-56.999
		c3-8,6.601-10.2,14.8-10.2h11.6v16.601h-2.6c-3.2,0-5,0.8-6.4,4l-40,98.798c-6.2,15.6-18.398,23.8-32.6,23.8c-15,0-23.8-10-23.8-10
		l8-14C2055.175,794.792,2061.375,801.792,2069.975,801.792z"/>
	<path fill="#C1C1C0" d="M2214.973,672.994c30.2,0,54.6,22.2,54.6,52.799c0,30.8-24.399,53.199-54.6,53.199
		s-54.398-22.399-54.398-53.199C2160.574,695.194,2184.773,672.994,2214.973,672.994z M2214.973,762.193
		c19.2,0,34.799-15.2,34.799-36.399c0-21-15.6-36-34.799-36c-19,0-34.6,15-34.6,36
		C2180.374,746.993,2195.973,762.193,2214.973,762.193z"/>
	<path fill="#C1C1C0" d="M2293.371,696.395c0-3-1.6-4.4-4.398-4.4h-8.2v-16.6h19c9.198,0,12.999,3.8,12.999,12.398v48
		c0,14,2.801,25.2,18.8,25.2c20.8,0,33-18.2,33-38.2v-47.398h19.399v80.198c0,3,1.601,4.4,4.399,4.4h8.199v16.6h-18.601
		c-8.6,0-12.8-4-12.8-11.2v-3.8c0-3.2,0.2-5.8,0.2-5.8h-0.4c-4.199,10-17.199,23.2-37.199,23.2c-22.8,0-34.398-12-34.398-38.799
		V696.395z"/>
	<path fill="#C1C1C0" d="M2417.97,696.395c0-3-1.601-4.4-4.399-4.4h-8.199v-16.6h18.398c8.801,0,13,3.6,13,11.8v6.399
		c0,4-0.399,7-0.399,7h0.399c4.801-14.8,16.399-26.398,32-26.398c2.601,0,5.199,0.399,5.199,0.399v19.2c0,0-2.6-0.6-5.8-0.6
		c-12.399,0-23.8,8.8-28.399,23.8c-1.801,5.8-2.399,12-2.399,18.2v41.398h-19.399L2417.97,696.395L2417.97,696.395z"/>
	<path fill="#C1C1C0" d="M2585.367,672.994c23.398,0,31.199,15.6,31.199,15.6h0.399c0,0-0.399-3-0.399-6.8v-25.399
		c0-3-1.601-4.4-4.399-4.4h-8.2v-16.6h19.2c8.999,0,12.8,3.8,12.8,12.8v107.397c0,3,1.601,4.4,4.399,4.4h8.2v16.6h-18.601
		c-8.8,0-12.399-4-12.399-10.8c0-3,0.199-5.2,0.199-5.2h-0.399c0,0-8.399,18.4-33.199,18.4c-27.399,0-44.601-21.6-44.601-52.999
		C2539.566,693.794,2558.566,672.994,2585.367,672.994z M2617.167,725.793c0-18-9.399-36-28.8-36c-15.801,0-29,13.2-29,36.2
		c0,22,11.8,36.199,28.6,36.199C2602.967,762.193,2617.167,751.593,2617.167,725.793z"/>
	<path fill="#C1C1C0" d="M2721.566,713.594h4.398v-1c0-17.8-6.6-24.199-22.398-24.199c-4.801,0-16.601,1.199-16.601,7.8v5.8h-18.2
		v-10c0-16.6,25.2-19,35-19c32.799,0,41.6,17.2,41.6,39.6v43c0,3,1.601,4.4,4.399,4.4h8.2v16.6h-18.2c-9,0-12.601-4.4-12.601-11.6
		c0-3.4,0.399-6,0.399-6h-0.399c0,0-8,20-32.198,20c-17.4,0-34.4-10.6-34.4-30.799
		C2660.566,715.594,2704.566,713.594,2721.566,713.594z M2699.166,763.393c16.4,0,27-17.199,27-32.199v-3.4h-5
		c-14.6,0-40.999,0.8-40.999,19.4C2680.167,755.393,2686.366,763.393,2699.166,763.393z"/>
	<path fill="#C1C1C0" d="M2779.765,690.994h-13.2v-15.6h13.602v-27.801h18.999v27.801h24.2v15.6h-24.2v46.398
		c0,20.2,14,22.8,21.399,22.8c2.801,0,4.601-0.4,4.601-0.4v17.2c0,0-2.601,0.4-6.8,0.4c-12.801,0-38.601-4-38.601-37.8V690.994z"/>
	<path fill="#C1C1C0" d="M2899.765,713.594h4.399v-1c0-17.8-6.601-24.199-22.399-24.199c-4.8,0-16.6,1.199-16.6,7.8v5.8h-18.2v-10
		c0-16.6,25.2-19,35-19c32.799,0,41.6,17.2,41.6,39.6v43c0,3,1.601,4.4,4.399,4.4h8.2v16.6h-18.2c-9,0-12.601-4.4-12.601-11.6
		c0-3.4,0.399-6,0.399-6h-0.399c0,0-8,20-32.198,20c-17.4,0-34.4-10.6-34.4-30.799
		C2838.765,715.594,2882.765,713.594,2899.765,713.594z M2877.364,763.393c16.399,0,27-17.199,27-32.199v-3.4h-5
		c-14.601,0-40.999,0.8-40.999,19.4C2858.365,755.393,2864.564,763.393,2877.364,763.393z"/>
	<path fill="#C1C1C0" d="M2954.163,755.993h19.8v20.6h-19.8V755.993z"/>
</g>
</svg>
