<?xml version="1.0" encoding="utf-8"?>
<!-- Generator: Adobe Illustrator 16.0.0, SVG Export Plug-In . SVG Version: 6.00 Build 0)  -->
<!DOCTYPE svg PUBLIC "-//W3C//DTD SVG 1.1//EN" "http://www.w3.org/Graphics/SVG/1.1/DTD/svg11.dtd">
<svg version="1.1" id="Layer_1" xmlns="http://www.w3.org/2000/svg" xmlns:xlink="http://www.w3.org/1999/xlink" x="0px" y="0px"
	 width="4464px" height="3168px" viewBox="0 0 4464 3168" enable-background="new 0 0 4464 3168" xml:space="preserve">
<path fill="#EAEAEA" d="M1331.462,1046.118c-6.141,0-6.224,6.026-6.224,6.026v122.419h39.076v-128.445
	C1344.588,1046.118,1332.441,1046.118,1331.462,1046.118z"/>
<rect x="1325.238" y="1181.895" fill="#EAEAEA" width="39.076" height="128.446"/>
<path fill="#EAEAEA" d="M1325.238,1317.672c0,0,0,119.656,0,123.564s4.688,4.882,4.688,4.882h34.387v-128.446H1325.238z"/>
<path fill="#EAEAEA" d="M1725.234,1051.131c0,0-0.283-5.013-5.222-5.013c-6.339,0-18.165,0-33.854,0v128.445h39.076V1051.131z"/>
<path fill="#EAEAEA" d="M1370.192,1046.118v128.445h309.353v-128.445C1604.433,1046.118,1436.121,1046.118,1370.192,1046.118z"/>
<rect x="1370.192" y="1181.895" fill="#EAEAEA" width="309.353" height="128.446"/>
<rect x="1686.158" y="1181.895" fill="#EAEAEA" width="39.076" height="128.446"/>
<path fill="#EAEAEA" d="M1725.231,1317.672h-39.069v128.446h34.915c0,0,4.138-0.829,4.154-4.592
	S1725.231,1317.672,1725.231,1317.672z"/>
<rect x="1370.192" y="1317.672" fill="#EAEAEA" width="309.353" height="128.446"/>
<g>
	<path fill="#EC6F6C" d="M1399.136,1129.424h-28.944v-36.621h134.48c52.99,0,91.286,28.104,91.286,76.647
		c0,32.789-18.257,54.931-39.186,64.725v0.851c33.397,9.369,51.654,39.177,51.654,72.815c0,56.635-45.42,85.59-101.083,85.59
		h-79.708c-20.039,0-28.5-8.09-28.5-27.253V1129.424z M1505.117,1219.272c27.608,0,45.42-19.162,45.42-45.563
		c0-26.4-16.922-44.285-46.311-44.285h-60.561v89.848H1505.117z M1453.462,1356.812h56.108c33.397,0,52.991-20.439,52.991-51.098
		c0-30.659-20.93-51.525-52.991-51.525h-65.904v93.255C1443.666,1353.405,1447.229,1356.812,1453.462,1356.812z"/>
</g>
</svg>
